<?xml version="1.0" encoding="iso-8859-1"?>
<!-- Generator: Adobe Illustrator 19.0.0, SVG Export Plug-In . SVG Version: 6.00 Build 0)  -->
<svg version="1.1" id="Layer_1" xmlns="http://www.w3.org/2000/svg" xmlns:xlink="http://www.w3.org/1999/xlink" x="0px" y="0px"
	 viewBox="0 0 491.52 491.52" style="enable-background:new 0 0 491.52 491.52;" xml:space="preserve">
<circle style="fill:#FCD462;" cx="245.76" cy="245.76" r="245.76"/>
<circle style="fill:#F6C358;" cx="245.76" cy="245.76" r="204.759"/>
<path style="fill:#DC8744;" d="M101.768,232.854v-33.643h40.677c8.594-27.898,23.839-50.321,45.769-67.269
	c21.898-16.949,46.788-25.415,74.701-25.415c41.44,0,74.287,14.991,98.541,44.973l-27.754,35.202
	c-11.49-12.254-22.375-20.863-32.656-25.813c-10.312-4.949-23.012-7.432-38.13-7.432c-15.15,0-28.773,3.979-40.868,11.92
	c-12.127,7.957-21.198,19.24-27.181,33.834h93.066v33.643h-101.31c-0.255,3.119-0.382,7.878-0.382,14.275
	c0,6.382,0.382,12.445,1.178,18.174h100.514v33.643h-89.947c14.068,27.118,35.329,40.677,63.752,40.677
	c14.068,0,26.131-2.674,36.157-8.021c10.058-5.347,20.688-13.75,31.892-25.224l27.754,33.627
	c-24.253,29.998-56.177,44.989-95.803,44.989c-27.118,0-51.18-7.766-72.155-23.282c-21.007-15.5-36.061-36.428-45.196-62.765
	h-42.618v-33.643h35.202c-0.796-6.254-1.178-12.509-1.178-18.763c0-6.254,0.127-10.822,0.382-13.686H101.768z"/>
<g>
</g>
<g>
</g>
<g>
</g>
<g>
</g>
<g>
</g>
<g>
</g>
<g>
</g>
<g>
</g>
<g>
</g>
<g>
</g>
<g>
</g>
<g>
</g>
<g>
</g>
<g>
</g>
<g>
</g>
</svg>
