<?xml version="1.0" encoding="utf-8"?>
<!-- Generator: Adobe Illustrator 19.0.0, SVG Export Plug-In . SVG Version: 6.00 Build 0)  -->
<svg version="1.1" id="Layer_1" xmlns="http://www.w3.org/2000/svg" xmlns:xlink="http://www.w3.org/1999/xlink" x="0px" y="0px"
	 viewBox="0 0 96 96" style="enable-background:new 0 0 96 96;" xml:space="preserve">
<style type="text/css">
	.st0{fill:#25B7D3;}
	.st1{fill:#FBEC9A;}
	.st2{fill:#FACB1B;}
	.st3{fill:#FBE158;}
	.st4{fill:#FCF6C2;}
	.st5{fill:#8E6134;}
</style>
<g id="XMLID_1_">
	<circle id="XMLID_3_" class="st0" cx="48" cy="48" r="32.5"/>
	<path id="XMLID_6_" class="st1" d="M48,31.5c9.1,0,16.5,7.4,16.5,16.5S57.1,64.5,48,64.5S31.5,57.1,31.5,48S38.9,31.5,48,31.5
		 M48,29.1c-10.4,0-18.9,8.5-18.9,18.9S37.6,66.9,48,66.9S66.9,58.4,66.9,48S58.4,29.1,48,29.1z"/>
	<path id="XMLID_7_" class="st2" d="M48,64.5c-9.1,0-16.5-7.4-16.5-16.5S38.9,31.5,48,31.5S64.5,38.9,64.5,48S57.1,64.5,48,64.5z"/>
	<path id="XMLID_8_" class="st3" d="M48,31.5c-9.1,0-16.5,7.4-16.5,16.5c0,4.7,2,8.9,5.1,12L60,36.6C56.9,33.4,52.7,31.5,48,31.5z"
		/>
	<path id="XMLID_9_" class="st4" d="M31.5,48c0-9.1,7.4-16.5,16.5-16.5c4.7,0,8.9,2,11.9,5.1l1.7-1.7c-3.4-3.6-8.3-5.8-13.6-5.8
		c-10.4,0-18.9,8.5-18.9,18.9c0,5.3,2.2,10.2,5.8,13.6l1.7-1.7C33.4,56.9,31.5,52.7,31.5,48z"/>
	<path id="XMLID_10_" class="st5" d="M56.5,54.9c-1.5,2-3.4,3.3-6.4,3.3c-4.2,0-7.1-2.7-8.2-6.7h-1.5c-0.7,0-1.2-0.5-1.2-1.2
		c0-0.7,0.5-1.2,1.2-1.2h1.1c0-0.3,0-0.7,0-1.1c0-0.4,0-0.9,0.1-1.3h-1.1c-0.7,0-1.2-0.5-1.2-1.2c0-0.7,0.5-1.2,1.2-1.2H42
		c1.1-3.8,4-6.6,8.1-6.6c3,0,4.8,1.2,6.3,2.9c0.2,0.2,0.5,0.7,0.5,1.2c0,0.9-0.8,1.6-1.7,1.6c-0.6,0-1-0.3-1.2-0.6
		c-1.1-1.3-2.2-2-3.9-2c-2,0-3.6,1.3-4.4,3.5h5c0.7,0,1.2,0.5,1.2,1.2c0,0.7-0.5,1.2-1.2,1.2H45C45,47.1,45,47.5,45,48
		c0,0.4,0,0.8,0,1.1h5.6c0.7,0,1.2,0.6,1.2,1.2c0,0.7-0.5,1.2-1.2,1.2h-5.1c0.8,2.3,2.4,3.6,4.7,3.6c1.7,0,2.8-0.8,3.9-2.2
		c0.3-0.3,0.7-0.6,1.2-0.6c0.9,0,1.6,0.7,1.6,1.5C56.8,54.4,56.7,54.8,56.5,54.9z"/>
</g>
</svg>
