<svg id="Capa_1" enable-background="new 0 0 501 501" height="512" viewBox="0 0 501 501" width="512" xmlns="http://www.w3.org/2000/svg"><g><path d="m5.5 256c0-135.31 109.69-245 245-245s245 109.69 245 245c0 82.27-40.55 155.068-102.754 199.5-40.103-28.645-89.206-45.5-142.246-45.5s-102.143 16.855-142.246 45.5c-62.204-44.432-102.754-117.23-102.754-199.5z" fill="#fd2aa7"/><path d="m250.5 11c117.999 0 216.513 83.418 239.79 194.5-23.277 111.082-121.791 194.5-239.79 194.5-117.998 0-216.513-83.418-239.789-194.5 23.276-111.082 121.791-194.5 239.789-194.5z" fill="#fd4fb6"/><path d="m101.267 450.321v-272.119c-7.757-4.488-12.977-12.875-12.977-22.481v-38.93c0-9.606 5.219-17.994 12.977-22.481v-68.356c0-14.334 11.62-25.954 25.954-25.954h63.004c-14.334 0-25.953 11.62-25.953 25.954v436.399c0 11.174-11.719 18.563-21.747 13.632-14.635-7.197-28.447-15.811-41.258-25.664z" fill="#172a7d"/><path d="m399.732 152.249v19.922c7.758 4.488 12.977 12.875 12.977 22.481v12.977c0 9.606-5.219 17.993-12.977 22.481v119.89.019 100.302c-11.365 8.741-23.518 16.507-36.335 23.174-4.223 2.197-10.265 4.15-17.665 5.857-101.064 23.324-197.369-54.233-197.369-157.953v-295.446c.001-14.333 11.62-25.953 25.954-25.953h199.462c14.334 0 25.954 11.62 25.954 25.954v68.356c7.758 4.488 12.977 12.875 12.977 22.481v12.977c-.001 9.606-5.22 17.993-12.978 22.481z" fill="#1f3595"/><path d="m363.398 361.488v112.006c-33.786 17.574-72.182 27.506-112.898 27.506-39.677 0-77.151-9.432-110.302-26.175v-113.337c0-7.167 5.81-12.977 12.977-12.977h197.246c7.167.001 12.977 5.811 12.977 12.977z" fill="#e3f0fb"/><path d="m263.398 467.5h-23.2c-55.228 0-100-44.772-100-100v-315.593c0-7.167 5.81-12.977 12.977-12.977h197.247c7.167 0 12.977 5.81 12.977 12.977v315.593c-.001 55.228-44.773 100-100.001 100z" fill="#fff5f5"/><path d="m212.867 68.128c0-5.375 4.357-9.733 9.733-9.733h58.395c5.375 0 9.733 4.357 9.733 9.733 0 5.375-4.357 9.732-9.733 9.732h-58.395c-5.375 0-9.733-4.357-9.733-9.732z" fill="#1f3595"/><path d="m297 380h-107.5c-4.142 0-7.5 3.358-7.5 7.5s3.358 7.5 7.5 7.5h107.5c4.142 0 7.5-3.358 7.5-7.5s-3.358-7.5-7.5-7.5zm-50 30h-57.5c-4.142 0-7.5 3.358-7.5 7.5s3.358 7.5 7.5 7.5h57.5c4.142 0 7.5-3.358 7.5-7.5s-3.358-7.5-7.5-7.5z" fill="#49b4fa"/><path d="m237 467.5h-47.5c-4.142 0-7.5-3.358-7.5-7.5 0-4.142 3.358-7.5 7.5-7.5h47.5c4.142 0 7.5 3.358 7.5 7.5 0 4.142-3.358 7.5-7.5 7.5zm90-7.5c0-4.142-3.358-7.5-7.5-7.5h-37.5c-4.142 0-7.5 3.358-7.5 7.5 0 4.142 3.358 7.5 7.5 7.5h37.5c4.142 0 7.5-3.358 7.5-7.5zm-11.5-232h-130c-11.046 0-20 8.954-20 20 0 11.046 8.954 20 20 20h21.432.001c27.766-12.188 59.369-12.188 87.135 0h21.432c11.046 0 20-8.954 20-20 0-11.046-8.954-20-20-20z" fill="#314dc8"/><path d="m335 360h-169c-2.761 0-5-2.239-5-5v-50c0-2.761 2.239-5 5-5h169c2.761 0 5 2.239 5 5v50c0 2.761-2.239 5-5 5z" fill="#fdcb6b"/><path d="m237 337.5h-47.5c-4.142 0-7.5-3.358-7.5-7.5 0-4.142 3.358-7.5 7.5-7.5h47.5c4.142 0 7.5 3.358 7.5 7.5 0 4.142-3.358 7.5-7.5 7.5z" fill="#fd8f01"/><path d="m317 337.5h-27.5c-4.142 0-7.5-3.358-7.5-7.5 0-4.142 3.358-7.5 7.5-7.5h27.5c4.142 0 7.5 3.358 7.5 7.5 0 4.142-3.358 7.5-7.5 7.5z" fill="#e27500"/><path d="m165.5 195c0-46.944 38.056-85 85-85s85 38.056 85 85c0 31.019-16.616 58.157-41.432 73h-87.136c-24.816-14.843-41.432-41.981-41.432-73z" fill="#fda800"/><path d="m311.214 195c0 26.272-16.687 48.646-40.04 57.103 2.337-6.453 3.612-13.415 3.612-20.674 0-33.531-27.183-60.714-60.714-60.714-7.259 0-14.221 1.275-20.674 3.612 8.457-23.353 30.831-40.04 57.103-40.04 33.53-.001 60.713 27.181 60.713 60.713z" fill="#fdbf43"/><path d="m250.5 123.75c-39.287 0-71.25 31.963-71.25 71.25s31.963 71.25 71.25 71.25 71.25-31.963 71.25-71.25-31.963-71.25-71.25-71.25zm0 127.5c-31.017 0-56.25-25.233-56.25-56.25s25.233-56.25 56.25-56.25 56.25 25.233 56.25 56.25-25.233 56.25-56.25 56.25zm25.971-54.198c2.929 2.93 2.929 7.678 0 10.607l-20.667 20.667c-1.465 1.464-3.385 2.196-5.304 2.196s-3.839-.732-5.304-2.196l-20.667-20.667c-2.929-2.93-2.929-7.678 0-10.607 2.93-2.928 7.678-2.928 10.607 0l7.655 7.656v-46.708c0-4.143 3.357-7.5 7.5-7.5s7.5 3.357 7.5 7.5v47.124l8.071-8.072c2.931-2.928 7.679-2.928 10.609 0z" fill="#e27500"/></g></svg>