<?xml version="1.0" encoding="utf-8"?>
<!-- Svg Vector Icons : http://www.onlinewebfonts.com/icon -->
<!DOCTYPE svg PUBLIC "-//W3C//DTD SVG 1.1//EN" "http://www.w3.org/Graphics/SVG/1.1/DTD/svg11.dtd">
<svg version="1.1" xmlns="http://www.w3.org/2000/svg" xmlns:xlink="http://www.w3.org/1999/xlink" x="0px" y="0px" viewBox="0 0 1000 1000" enable-background="new 0 0 1000 1000" xml:space="preserve">
<metadata> Svg Vector Icons : http://www.onlinewebfonts.com/icon </metadata>
<g><g transform="translate(0.000000,511.000000) scale(0.100000,-0.100000)"><path d="M9452.6,5003.1c-300.7-41.5-727.9-250.9-1364.5-667.8c-248.8-163.8-311.1-211.5-292.4-234.3c51.8-62.2,97.5-49.8,342.2,99.5c835.7,506,1177.9,445.9,941.5-168c-35.3-87.1-112-246.8-174.2-354.6c-60.1-107.8-105.8-199.1-97.5-201.2c224-53.9,383.6-147.2,479-280l62.2-85l174.2,360.8c344.2,709.2,454.1,1188.3,323.5,1403.9C9774.1,4996.9,9662.1,5032.2,9452.6,5003.1z"/><path d="M4620.8,4555.2c-51.8-4.1-207.4-27-348.4-49.8c-920.8-151.4-1748.2-580.6-2420.1-1252.6C1168,2568.5,747,1741.1,585.3,764.4c-53.9-315.2-53.9-1070-2.1-1368.7c118.2-676,354.6-1281.6,705.1-1804.2c101.6-151.4,344.2-460.4,412.7-522.6l47.7-45.6l284.1,211.5l284.1,211.5l-51.8,62.2c-122.3,149.3-134.8,205.3-128.6,605.5l6.2,369.1l-124.4,197c-68.4,107.8-205.3,323.5-306.9,477c-101.6,153.5-240.6,396.1-311.1,539.2L1271.7-44.4l2.1,487.3c0,723.8,53.9,933.2,333.9,1356.2c74.6,112,207.4,290.3,292.4,394c265.4,321.4,904.2,941.5,1399.8,1358.3c56,45.6,172.1-16.6,213.6-114.1c37.3-91.3,29-138.9-76.7-404.4c-45.6-109.9-80.9-232.3-80.9-273.7c0-85,85-201.2,147.2-201.2c109.9,0,246.8-128.6,246.8-230.2c0-95.4-83-143.1-246.8-143.1c-168,0-246.8-41.5-323.5-174.2c-58.1-97.5-89.2-277.9-64.3-373.3c35.3-138.9,192.9-186.6,248.9-76.7c16.6,31.1,64.3,87.1,105.8,124.4c95.4,82.9,224,89.2,354.6,12.4c82.9-49.8,215.7-215.7,215.7-273.7c0-14.5,18.7-62.2,41.5-103.7c93.3-174.2,45.6-246.8-240.6-381.6L3625.4,839l12.4-93.3c16.6-114.1-6.2-128.6-238.5-157.6c-170.1-22.8-354.6-93.3-470.7-180.4c-35.2-27-109.9-105.8-163.8-178.3C2580.2-9.1,2459.9-117,2374.9-117c-18.7,0-35.3,31.1-43.6,80.9c-24.9,163.8-194.9,265.4-402.3,244.7c-224-22.8-377.4-174.2-377.4-369.1c0-89.2,6.2-99.5,85-153.5c130.6-93.3,296.5-284.1,325.6-377.4c14.5-45.6,24.9-138.9,24.9-205.3c0-333.9,118.2-450,591-576.5c356.7-95.4,425.1-122.4,559.9-211.5c64.3-41.5,126.5-70.5,141-64.3c45.6,18.7,906.2,808.8,1387.3,1271.2C5296.8,131.9,6383.5,1260,6383.5,1305.6c0,6.2-18.7,35.2-41.5,66.3c-58.1,72.6-27,101.6,76.7,70.5c66.4-20.7,82.9-18.7,116.1,12.4c95.4,85,87.1,103.7-64.3,149.3c-501.9,149.3-636.6,798.4-240.6,1161.3c62.2,53.9,153.5,116.1,205.3,134.8c51.8,20.7,93.3,43.6,93.3,51.8c0,8.3-51.8,70.5-114.1,136.9c-62.2,68.4-114.1,136.9-114.1,155.5c0,18.7-10.4,62.2-22.8,97.5c-31.1,93.3-124.4,126.5-400.3,147.2c-269.6,20.7-373.3,58.1-437.6,161.8c-51.8,85-261.3,170-572.4,236.4c-178.3,37.3-286.2,45.6-624.2,47.7c-224,2.1-396.1,8.3-383.6,14.5c45.6,24.9,321.4,80.9,605.5,122.3c1047.3,153.5,2096.6-112,2953-746.6l163.8-120.3l255.1,62.2c141,35.3,265.5,70.5,273.7,78.8c22.8,20.7-215.7,217.7-462.4,383.6c-663.6,443.8-1430.9,732-2187.8,819.1C5286.5,4567.7,4832.3,4571.8,4620.8,4555.2z M4637.4,2904.5c16.6-83-172.1-211.5-234.3-159.7c-33.2,27-41.5,99.5-14.5,136.9C4440.4,2958.4,4624.9,2975,4637.4,2904.5z M5019,2869.2c165.9-47.7,265.4-259.2,224-481.1c-29-153.4-97.5-282-292.4-545.4c-93.3-124.4-182.5-259.2-201.1-294.5c-18.7-37.3-39.4-68.4-45.6-68.4c-8.3,0-45.6,20.7-85,47.7c-101.6,68.5-120.3,159.7-70.5,362.9c58.1,244.7,53.9,327.7-24.9,447.9c-145.2,217.7-53.9,418.9,240.6,522.6C4855.1,2894.1,4919.4,2896.2,5019,2869.2z M4092,2400.6c99.5-39.4,134.8-315.2,58.1-487.3c-126.5-282-267.5-165.9-199.1,163.8c16.6,89.2,27,194.9,18.7,246.8c-10.4,82.9-8.3,89.2,37.3,89.2C4036,2413,4073.3,2406.8,4092,2400.6z M4154.2,812.1c41.5-18.7,51.8-37.3,47.7-76.7c-6.2-45.6-14.5-53.9-68.4-47.7c-112,10.4-197,76.7-163.8,130.7C3984.1,845.3,4089.9,841.1,4154.2,812.1z M3148.4,463.7c0-10.4-14.5-20.7-31.1-20.7c-16.6,0-31.1,10.4-31.1,20.7c0,12.5,14.5,20.7,31.1,20.7C3133.9,484.4,3148.4,476.1,3148.4,463.7z M2507.6-683.1c80.9-53.9,109.9-170,51.8-192.9c-56-20.7-300.7,172.1-273.7,215.7C2310.6-618.8,2433-631.3,2507.6-683.1z"/><path d="M7634,2757.3C7049.2,2605.9,6557.7,2469,6539,2454.5c-93.3-78.8-120.3-236.4-56-342.2c35.3-58.1,72.6-72.6,503.9-194.9c255.1-72.6,477-138.9,491.5-145.2c27-14.5-224-313.1-761.1-904.2C4475.6-1593.5,1752.8-3872.5,850.7-4040.5c-145.2-27-226,2.1-271.7,97.5c-62.2,130.6,60.1,472.8,325.6,908.3c82.9,134.8,149.3,257.2,149.3,271.7s-16.6,41.5-39.4,62.2c-35.3,33.2-45.6,20.7-244.7-282.1C301.2-3698.3,100-4138,100-4442.8c0-157.6,24.9-221.9,105.8-284.1c421-311.1,2100.7,508.1,3832.3,1868.4c763.1,599.3,1350,1121.9,2077.9,1847.7c713.4,715.4,1300.3,1374.9,1833.2,2061.3c103.7,132.7,192.9,240.6,199.1,242.6c8.3,0,132.7-186.6,277.9-412.7c165.9-259.2,284.1-421,315.2-435.5c116.1-51.8,265.4,2.1,327.6,120.3c29,56,27,153.4-20.7,1074.2c-66.4,1275.4-60.1,1217.3-141,1304.4c-43.6,43.5-93.3,72.6-138.9,78.8C8716.5,3031,8388.8,2954.3,7634,2757.3z"/><path d="M9463,362.1c-24.9-78.8-194.9-248.9-300.7-302.8l-95.4-47.7L9042-251.8c-58.1-622.1-232.3-1171.7-535-1683.9c-134.8-230.2-408.5-599.3-418.9-566.1c-4.2,12.5,31.1,101.6,80.9,199.1c82.9,163.8,89.2,186.6,89.2,346.3c0,132.7-8.3,188.7-43.6,253c-82.9,155.5-182.5,217.7-356.7,217.7c-82.9,0-116.1-14.5-221.9-91.2c-294.5-219.8-555.8-290.3-765.2-211.5c-114.1,43.5-280,205.3-331.8,325.6c-20.7,49.8-41.5,95.4-45.6,101.6c-4.2,4.2-134.8-118.2-292.4-271.7c-300.7-298.6-642.9-613.8-1001.6-920.8l-215.7-188.7l66.4-89.2c122.3-159.7,82.9-360.8-95.4-491.5c-93.3-68.5-485.3-273.7-661.5-346.3c-201.2-80.9-445.9-118.2-547.5-78.8c-39.4,14.5-80.9-6.2-263.4-134.8c-118.2-82.9-217.7-155.5-221.9-159.7c-16.6-14.5,418.9-161.7,649.1-219.8c394-99.5,676-134.8,1105.3-134.8c539.2,0,978.8,70.5,1466.2,238.5C8069.4-3611.2,9212.1-2230.1,9463-554.5c39.4,263.4,62.2,819.1,35.3,904.2l-18.7,62.2L9463,362.1z"/></g></g>
</svg>