<?xml version="1.0" encoding="iso-8859-1"?>
<!-- Generator: Adobe Illustrator 19.0.0, SVG Export Plug-In . SVG Version: 6.00 Build 0)  -->
<svg version="1.1" id="Layer_1" xmlns="http://www.w3.org/2000/svg" xmlns:xlink="http://www.w3.org/1999/xlink" x="0px" y="0px"
	 viewBox="0 0 512 512" style="enable-background:new 0 0 512 512;" xml:space="preserve">
<g>
	<path style="fill:#ECF0F1;" d="M13.241,414.897v70.956c0,14.442,11.705,26.147,26.147,26.147h230.188
		c14.442,0,26.147-11.705,26.147-26.147v-70.956H13.241z"/>
	<path style="fill:#38454F;" d="M269.58,0H39.383C24.95,0,13.245,11.705,13.245,26.147v388.749h282.483V291.125V88.276V26.147
		C295.728,11.705,284.022,0,269.58,0"/>
	<path style="fill:#BDC3C7;" d="M162.587,476.69H146.38c-5.279,0-9.551-4.273-9.551-9.551v-16.207c0-5.279,4.273-9.551,9.551-9.551
		h16.207c5.279,0,9.551,4.273,9.551,9.551v16.207C172.139,472.417,167.866,476.69,162.587,476.69"/>
	<g>
		<path style="fill:#263138;" d="M99.011,370.042c-2.737,1.015-5.685,1.545-8.492,2.419c-10.337,3.231-18.202,10.955-25.379,18.706
			c-3.39,3.672-6.709,7.38-9.852,11.264c-1.218,1.51-7.918,12.465-9.463,12.465h217.318c-12.147-16.94-27.71-39.15-49.346-43.838
			c-1.633-0.353-3.302-0.627-4.855-1.262c-1.218-0.512-2.339-1.245-3.363-2.083c-6.409-5.252-6.938-12.535-6.956-20.18
			c-0.009-2.278-1.571-13.453,0-14.989c0,0,20.736-20.224,26.483-44.438c4.758-2.984,8.828-7.415,8.828-13.286v-22.254
			c0-4.899-5.332-9.993-8.828-13.056v-29.369c0,0-0.565-51.244-70.621-51.244c-70.065,0-70.621,51.244-70.621,51.244v29.369
			c-3.505,3.063-8.828,8.157-8.828,13.056v22.254c0,5.87,4.061,10.302,8.828,13.286c5.747,24.214,26.483,44.438,26.483,44.438
			c0,11.202,3.196,28.919-8.06,35.928C101.253,369.115,100.15,369.618,99.011,370.042"/>
		<path style="fill:#263138;" d="M83.862,61.793c4.882,0,8.828-3.946,8.828-8.828s-3.946-8.828-8.828-8.828H13.241v17.655H83.862z"
			/>
	</g>
	<path style="fill:#4482C3;" d="M384,26.483c-63.382,0-114.759,44.844-114.759,100.149c0,20.383,6.991,39.336,18.979,55.155
		c-1.536,17.814-5.87,42.726-18.017,55.578c-0.327,0.344-0.079,0.847,0.406,0.777c7.159-1.103,40.916-6.903,64.627-20.842
		c14.804,6.073,31.32,9.49,48.764,9.49c63.382,0,114.759-47.89,114.759-103.203S447.382,26.483,384,26.483"/>
	<g>
		<path style="fill:#FFFFFF;" d="M410.483,97.103h-79.448c-4.882,0-8.828-3.946-8.828-8.828s3.946-8.828,8.828-8.828h79.448
			c4.882,0,8.828,3.946,8.828,8.828S415.364,97.103,410.483,97.103"/>
		<path style="fill:#FFFFFF;" d="M436.966,167.724H331.034c-4.882,0-8.828-3.946-8.828-8.828c0-4.882,3.946-8.828,8.828-8.828
			h105.931c4.882,0,8.828,3.946,8.828,8.828C445.793,163.778,441.847,167.724,436.966,167.724"/>
		<path style="fill:#FFFFFF;" d="M454.621,132.414H331.034c-4.882,0-8.828-3.946-8.828-8.828s3.946-8.828,8.828-8.828h123.586
			c4.882,0,8.828,3.946,8.828,8.828S459.502,132.414,454.621,132.414"/>
	</g>
</g>
<g>
</g>
<g>
</g>
<g>
</g>
<g>
</g>
<g>
</g>
<g>
</g>
<g>
</g>
<g>
</g>
<g>
</g>
<g>
</g>
<g>
</g>
<g>
</g>
<g>
</g>
<g>
</g>
<g>
</g>
</svg>
